<svg id="Layer_1" enable-background="new 0 0 512.002 512.002" height="512" viewBox="0 0 512.002 512.002" width="512" xmlns="http://www.w3.org/2000/svg"><g><g clip-rule="evenodd" fill-rule="evenodd"><path d="m210.001 50.002h80v-20.002c0-11-9-20-20-20h-240c-11 0-20 9-20 20v20.002h80c0 5.5 4.499 10 10 10h100c5.501 0 10-4.5 10-10z" fill="#6d91ac"/><path d="m290.001 50.002h-80c0 5.5-4.499 10-10 10h-100c-5.5 0-10-4.5-10-10h-80l-.001 411.998h280.001z" fill="#99ebfa"/><path d="m290.001 462h-280v20.002c0 11 9 20 20 20h240c11 0 20-9 20-20z" fill="#6d91ac"/><path d="m182.004 206.754c0-11-9-20-20-20s-20 9-20 20v10c0 5.113 1.944 9.794 5.13 13.339 3.668 4.083 8.983 6.661 14.87 6.661s11.202-2.578 14.87-6.661c3.185-3.546 5.13-8.226 5.13-13.339z" fill="#ffdcd5"/><path d="m176.874 230.093c-3.669 4.083-8.983 6.661-14.87 6.661s-11.202-2.578-14.869-6.662c-11.868 5.617-20.13 17.72-20.13 31.661v12.581h70v-12.581c-.001-13.94-8.263-26.044-20.131-31.66z" fill="#ff5d7d"/><path d="m421.999 206.754c0-11-9-20-20-20s-20 9-20 20v10c0 5.113 1.944 9.794 5.13 13.339 3.668 4.083 8.983 6.661 14.87 6.661 5.888 0 11.202-2.578 14.87-6.661 3.185-3.546 5.13-8.226 5.13-13.339z" fill="#ffdcd5"/><path d="m416.87 230.093c-3.669 4.083-8.983 6.661-14.87 6.661s-11.202-2.578-14.869-6.662c-11.868 5.617-20.13 17.72-20.13 31.661v12.581h70v-12.581c-.001-13.94-8.264-26.044-20.131-31.66z" fill="#ffc144"/><path d="m401.999 186.754c11 0 20 9 20 20v10.001c0 5.113-1.944 9.793-5.13 13.338 11.868 5.616 20.13 17.72 20.13 31.661v12.581h-70v-12.581c0-13.941 8.262-26.045 20.129-31.661-3.185-3.546-5.129-8.226-5.129-13.339v-10c.001-11 9.001-20 20-20zm60.001-35.752h-120.001v127.582h120.001z" fill="#60a4ff"/><path d="m222.005 278.584v-127.582h-120.002v127.582zm-40.001-71.83v10.001c0 5.113-1.944 9.793-5.13 13.338 11.868 5.616 20.13 17.72 20.13 31.661v12.581h-70v-12.581c0-13.941 8.262-26.045 20.129-31.661-3.185-3.546-5.13-8.226-5.13-13.339v-10c0-11 9-20 20-20 11.001 0 20.001 9 20.001 20z" fill="#cbe558"/><path d="m222.005 151.002v127.582h-120.002v-127.582zm259.997-50.001h-400c-11 0-20 9-20 20v280c0 11 9 20 20 20h400c11 0 20-9 20-20v-280c0-11.001-9-20-20-20zm-140.003 177.583v-127.582h120.001v127.582z" fill="#fff"/></g><g><path d="m482.002 91.001h-182.002v-61.001c0-16.542-13.458-30-30-30h-240c-16.542 0-30 13.458-30 30v452.002c0 16.542 13.458 30 30 30h240c16.542 0 30-13.458 30-30v-51.001h182.001c16.542 0 30-13.458 30-30v-280c.001-16.542-13.457-30-29.999-30zm-452.002-71.001h240c5.514 0 10 4.486 10 10v10.001h-70c-5.523 0-10 4.477-10 10h-100c0-5.523-4.477-10-10-10h-70v-10.001c0-5.514 4.486-10 10-10zm250 432h-85.003c-5.523 0-10 4.477-10 10s4.477 10 10 10h85.003v10.002c0 5.514-4.486 10-10 10h-240c-5.514 0-10-4.486-10-10v-10.002h84.997c5.523 0 10-4.477 10-10s-4.477-10-10-10h-84.997v-391.999h62.684c3.463 5.974 9.928 10 17.315 10h100c7.388 0 13.853-4.026 17.316-10h62.685v30.999h-197.998c-16.542 0-30 13.458-30 30v280c0 16.542 13.458 30 30 30h197.998zm212.002-50.999c0 5.514-4.486 10-10 10h-400c-5.514 0-10-4.486-10-10v-280c0-5.514 4.486-10 10-10h400c5.514 0 10 4.486 10 10z"/><path d="m222.005 141.002h-120.002c-5.523 0-10 4.477-10 10v127.582c0 5.523 4.477 10 10 10h120.001c5.523 0 10-4.477 10-10v-127.582c.001-5.523-4.476-10-9.999-10zm-50.001 75.752c0 5.514-4.486 10-10 10s-10-4.486-10-10v-10c0-5.514 4.486-10 10-10s10 4.486 10 10zm-25.657 25.579c4.561 2.802 9.922 4.421 15.656 4.421 5.743 0 11.112-1.625 15.678-4.435 5.849 4.699 9.323 11.762 9.323 19.434v6.831h-50v-6.831c0-7.545 3.547-14.707 9.343-19.42zm65.658 26.251h-5v-6.831c0-13.82-6.234-26.531-16.728-34.976 1.115-3.136 1.728-6.509 1.728-10.023v-10c0-16.542-13.458-30-30-30s-30 13.458-30 30v10c0 3.514.613 6.887 1.728 10.024-10.494 8.443-16.728 21.15-16.728 34.975v6.831h-5.001v-107.582h100.001z"/><path d="m462 141.002h-120.001c-5.523 0-10 4.477-10 10v127.582c0 5.523 4.477 10 10 10h120.001c5.523 0 10-4.477 10-10v-127.582c0-5.523-4.477-10-10-10zm-50.001 75.752c0 5.514-4.486 10-10 10s-10-4.486-10-10v-10c0-5.514 4.486-10 10-10s10 4.486 10 10zm-25.656 25.579c4.561 2.802 9.922 4.421 15.656 4.421 5.743 0 11.112-1.625 15.677-4.435 5.849 4.699 9.323 11.762 9.323 19.434v6.831h-50v-6.831c.001-7.545 3.548-14.707 9.344-19.42zm65.657 26.251h-5v-6.831c0-13.821-6.234-26.532-16.728-34.976 1.115-3.136 1.728-6.509 1.728-10.023v-10c0-16.542-13.458-30-30-30s-30 13.458-30 30v10c0 3.514.613 6.887 1.728 10.024-10.495 8.443-16.728 21.15-16.728 34.975v6.831h-5.001v-107.582h100.001z"/><path d="m304.073 192.722c-3.906-3.904-10.237-3.904-14.143 0l-7.929 7.929-7.929-7.929c-3.906-3.905-10.237-3.905-14.143 0-3.905 3.906-3.905 10.237 0 14.143l7.929 7.928-7.929 7.928c-3.905 3.905-3.905 10.237 0 14.143 1.953 1.953 4.512 2.929 7.071 2.929s5.119-.977 7.071-2.929l7.929-7.929 7.929 7.929c1.953 1.953 4.512 2.929 7.071 2.929s5.119-.976 7.071-2.929c3.905-3.906 3.905-10.237 0-14.143l-7.929-7.928 7.929-7.928c3.907-3.906 3.907-10.237.002-14.143z"/><path d="m222.005 318.586h-120.002c-5.523 0-10 4.477-10 10s4.477 10 10 10h120.001c5.523 0 10-4.477 10-10s-4.476-10-9.999-10z"/><path d="m162.004 358.587h-60.001c-5.523 0-10 4.477-10 10s4.477 10 10 10h60.001c5.523 0 10-4.477 10-10s-4.477-10-10-10z"/><path d="m462 318.586h-120.001c-5.523 0-10 4.477-10 10s4.477 10 10 10h120.001c5.523 0 10-4.477 10-10s-4.477-10-10-10z"/><path d="m402 358.587h-60.001c-5.523 0-10 4.477-10 10s4.477 10 10 10h60.001c5.523 0 10-4.477 10-10s-4.477-10-10-10z"/><path d="m150 472c5.523 0 10-4.477 10-10s-4.477-10-10-10h-.007c-5.523 0-9.996 4.477-9.996 10s4.48 10 10.003 10z"/></g></g></svg>