<svg height="512pt" viewBox="-70 0 512 512" width="512pt" xmlns="http://www.w3.org/2000/svg"><path d="m293.113281 488.84375h-271.109375c-8.007812 0-14.503906-6.496094-14.503906-14.503906v-452.335938c0-8.011718 6.496094-14.503906 14.503906-14.503906h271.109375c8.011719 0 14.503907 6.492188 14.503907 14.503906v452.332032c0 8.011718-6.492188 14.507812-14.503907 14.507812zm0 0" fill="#505264"/><path d="m293.113281 7.5h-35.824219v481.339844h35.824219c8.011719 0 14.503907-6.492188 14.503907-14.503906v-452.332032c0-8.011718-6.492188-14.503906-14.503907-14.503906zm0 0" fill="#454851"/><path d="m7.5 63.570312h300.117188v369.199219h-300.117188zm0 0" fill="#75cff2"/><path d="m269.40625 312.339844c13.582031 0 26.5 2.824218 38.210938 7.90625v-256.675782h-50.328126v249.53125c3.96875-.5 8.015626-.761718 12.117188-.761718zm0 0" fill="#53b4e4"/><path d="m365.488281 408.421875c0 53.0625-43.015625 96.078125-96.082031 96.078125-53.0625 0-96.078125-43.015625-96.078125-96.078125s43.015625-96.078125 96.078125-96.078125c53.066406 0 96.082031 43.015625 96.082031 96.078125zm0 0" fill="#a4d852"/><path d="m269.40625 312.339844c-8.707031 0-17.140625 1.167968-25.164062 3.339844 40.855468 11.058593 70.914062 48.386718 70.914062 92.742187 0 44.351563-30.058594 81.679687-70.914062 92.738281 8.023437 2.175782 16.457031 3.339844 25.164062 3.339844 53.066406 0 96.082031-43.015625 96.082031-96.078125 0-53.066406-43.015625-96.082031-96.082031-96.082031zm0 0" fill="#97c63e"/><path d="m309.25 459.617188h-79.683594c-2.175781 0-3.9375-1.761719-3.9375-3.933594v-56.992188c0-2.171875 1.761719-3.933594 3.9375-3.933594h79.683594c2.175781 0 3.9375 1.761719 3.9375 3.933594v56.992188c0 2.171875-1.761719 3.933594-3.9375 3.933594zm0 0" fill="#f79f48"/><path d="m309.25 394.757812h-46.378906v64.859376h46.378906c2.175781 0 3.9375-1.761719 3.9375-3.933594v-56.992188c0-2.171875-1.761719-3.933594-3.9375-3.933594zm0 0" fill="#ef8229"/><path d="m259.851562 276.199219h-204.582031c-4.863281 0-8.800781-3.941407-8.800781-8.800781v-82.949219c0-4.859375 3.9375-8.800781 8.800781-8.800781h204.582031c4.859376 0 8.800782 3.941406 8.800782 8.800781v82.949219c0 4.859374-3.941406 8.800781-8.800782 8.800781zm0 0" fill="#e1e0de"/><path d="m259.851562 175.644531h-41.53125v100.554688h41.53125c4.859376 0 8.800782-3.941407 8.800782-8.800781v-82.949219c0-4.859375-3.941406-8.804688-8.800782-8.804688zm0 0" fill="#d6d6d6"/><path d="m248.855469 414.820312c-4.144531 0-7.5 3.355469-7.5 7.5v13.566407c0 4.144531 3.355469 7.5 7.5 7.5 4.140625 0 7.5-3.355469 7.5-7.5v-13.566407c0-4.140624-3.359375-7.5-7.5-7.5zm0 0"/><path d="m269.40625 414.820312c-4.140625 0-7.5 3.355469-7.5 7.5v13.566407c0 4.144531 3.359375 7.5 7.5 7.5 4.144531 0 7.5-3.355469 7.5-7.5v-13.566407c0-4.140624-3.355469-7.5-7.5-7.5zm0 0"/><path d="m289.964844 414.820312c-4.144532 0-7.5 3.355469-7.5 7.5v13.566407c0 4.144531 3.355468 7.5 7.5 7.5 4.140625 0 7.5-3.355469 7.5-7.5v-13.566407c0-4.140624-3.359375-7.5-7.5-7.5zm0 0"/><path d="m137.378906 41.855469h32c4.140625 0 7.5-3.359375 7.5-7.5 0-4.144531-3.359375-7.5-7.5-7.5h-32c-4.140625 0-7.5 3.355469-7.5 7.5 0 4.140625 3.359375 7.5 7.5 7.5zm0 0"/><path d="m118.890625 214.304688c-.390625 0-.777344.097656-1.265625.289062l-10.890625 3.695312.484375-10.890624c-.097656-2.722657-2.140625-3.988282-4.472656-3.988282-2.335938 0-4.378906 1.265625-4.476563 3.988282l.488281 10.792968s-10.230468-3.910156-12.0625-3.890625c-2.625.03125-4.570312 2.433594-4.570312 4.671875 0 2.039063.875 3.792969 2.820312 4.179688l10.796876 3.113281-6.808594 9.53125c-.582032.679687-1.070313 1.554687-1.070313 2.625 0 2.722656 3.308594 4.378906 5.253907 4.378906 1.164062 0 2.140624-.292969 2.917968-1.558593l6.710938-10.113282 6.613281 10.015625c.972656 1.460938 2.238281 1.65625 3.207031 1.65625 2.433594 0 5.058594-1.851562 5.058594-4.570312 0-.878907-.289062-1.851563-.679688-2.335938l-7.101562-10.113281 10.503906-2.628906c2.042969-.386719 2.917969-2.042969 2.917969-3.695313 0-2.429687-1.75-5.152343-4.375-5.152343zm0 0"/><path d="m177.4375 214.304688c-.390625 0-.78125.097656-1.265625.289062l-10.894531 3.695312.488281-10.890624c-.097656-2.722657-2.140625-3.988282-4.476563-3.988282-2.332031 0-4.375 1.265625-4.472656 3.988282l.488282 10.792968-10.796876-3.597656c-.582031-.292969-.972656-.292969-1.265624-.292969-2.625 0-4.570313 2.433594-4.570313 4.671875 0 2.039063.875 3.792969 2.820313 4.179688l10.796874 3.113281-6.808593 9.53125c-.582031.679687-1.070313 1.554687-1.070313 2.625 0 2.722656 3.308594 4.378906 5.25 4.378906 1.167969 0 2.140625-.292969 2.917969-1.558593l6.710937-10.113282 6.613282 10.015625c.976562 1.460938 2.238281 1.65625 3.210937 1.65625 2.433594 0 5.058594-1.851562 5.058594-4.570312 0-.878907-.292969-1.851563-.683594-2.335938l-7.097656-10.113281 10.503906-2.628906c2.042969-.386719 2.917969-2.042969 2.917969-3.695313 0-2.429687-1.75-5.152343-4.375-5.152343zm0 0"/><path d="m235.980469 214.304688c-.386719 0-.777344.097656-1.261719.289062l-10.894531 3.695312.488281-10.890624c-.097656-2.722657-2.140625-3.988282-4.476562-3.988282-2.332032 0-4.375 1.265625-4.472657 3.988282l.484375 10.792968-10.792968-3.597656c-.585938-.292969-.972657-.292969-1.265626-.292969-2.625 0-4.570312 2.433594-4.570312 4.671875 0 2.039063.875 3.792969 2.820312 4.179688l10.796876 3.113281-6.808594 9.53125c-.585938.679687-1.070313 1.554687-1.070313 2.625 0 2.722656 3.304688 4.378906 5.25 4.378906 1.167969 0 2.140625-.292969 2.917969-1.558593l6.710938-10.113282 6.613281 10.015625c.976562 1.460938 2.238281 1.65625 3.210937 1.65625 2.433594 0 5.058594-1.851562 5.058594-4.570312 0-.878907-.292969-1.851563-.683594-2.335938l-7.097656-10.113281 10.503906-2.628906c2.042969-.386719 2.917969-2.042969 2.917969-3.695313 0-2.429687-1.75-5.152343-4.378906-5.152343zm0 0"/><path d="m55.269531 168.144531c-8.988281 0-16.300781 7.316407-16.300781 16.304688v82.945312c0 8.992188 7.3125 16.304688 16.300781 16.304688h204.582031c8.988282 0 16.300782-7.3125 16.300782-16.304688v-82.945312c0-8.988281-7.3125-16.304688-16.300782-16.304688zm205.882813 16.304688v82.945312c0 .71875-.585938 1.304688-1.304688 1.304688h-204.578125c-.71875 0-1.304687-.585938-1.304687-1.304688v-82.945312c0-.71875.585937-1.304688 1.304687-1.304688h204.578125c.71875 0 1.304688.585938 1.304688 1.304688zm0 0"/><path d="m168.046875 481.34375h-146.042969c-3.859375 0-7.003906-3.144531-7.003906-7.003906v-34.070313h127.382812c4.140626 0 7.5-3.355469 7.5-7.5 0-4.140625-3.359374-7.5-7.5-7.5h-127.382812v-354.199219h285.117188v214.335938c0 4.144531 3.359374 7.5 7.5 7.5 4.144531 0 7.5-3.355469 7.5-7.5v-263.402344c0-12.132812-9.871094-22.003906-22.003907-22.003906h-271.109375c-12.132812 0-22.003906 9.871094-22.003906 22.003906v452.335938c0 12.132812 9.871094 22.003906 22.003906 22.003906h146.042969c4.140625 0 7.5-3.359375 7.5-7.5 0-4.144531-3.359375-7.5-7.5-7.5zm-146.042969-466.34375h271.109375c3.863281 0 7.003907 3.140625 7.003907 7.003906v34.066406h-285.117188v-34.066406c0-3.863281 3.140625-7.003906 7.003906-7.003906zm0 0"/><path d="m269.40625 304.84375c-57.113281 0-103.578125 46.464844-103.578125 103.578125s46.464844 103.578125 103.578125 103.578125c57.117188 0 103.582031-46.464844 103.582031-103.578125s-46.464843-103.578125-103.582031-103.578125zm0 192.15625c-48.839844 0-88.578125-39.734375-88.578125-88.578125s39.738281-88.578125 88.578125-88.578125c48.84375 0 88.582031 39.734375 88.582031 88.578125s-39.738281 88.578125-88.582031 88.578125zm0 0"/><path d="m309.25 387.257812h-.640625v-11.128906c0-21.613281-17.585937-39.199218-39.203125-39.199218-21.613281 0-39.199219 17.585937-39.199219 39.199218v11.128906h-.640625c-6.308594 0-11.4375 5.128907-11.4375 11.433594v56.992188c0 6.304687 5.128906 11.433594 11.4375 11.433594h79.683594c6.304688 0 11.4375-5.128907 11.4375-11.433594v-56.992188c0-6.304687-5.128906-11.433594-11.4375-11.433594zm-64.042969-11.128906c0-13.34375 10.855469-24.199218 24.199219-24.199218 13.347656 0 24.203125 10.855468 24.203125 24.199218v11.128906h-48.402344zm60.480469 75.988282h-72.558594v-49.859376h72.558594zm0 0"/></svg>